# xmcd CD database file
#
# Track frame offsets:
#	150
#	22967
#	40645
#	63622
#	78565
#	95887
#	111220
#	128615
#	151370
#	169030
#	192022
#	206970
#	224292
#	239625
#	257080
#	277820
#
# Disc length: 4440 seconds
#
# Revision: 1
# Processed by: cddbd v1.5.2PL0 Copyright (c) Steve Scherf et al.
# Submitted via: CDex 1.70beta2
#
DISCID=e2115610
DTITLE=Various Artist - 仮面ライダー響鬼ソングコレクション
DYEAR=2006
DGENRE=JPop
TTITLE0=布施明/始まりの君へ
TTITLE1=橋本仁/極めれば音撃！！
TTITLE2=RIN' Featuring m.c.A・T/Flashback
TTITLE3=小野正利/響鬼見参！！
TTITLE4=関智一/風雅勇伝
TTITLE5=さかもとえいぞう/雷武轟々
TTITLE6=布施明/少年よ
TTITLE7=始まりの君へ(inst)
TTITLE8=極めれば音撃！！(inst)
TTITLE9=Flashback(inst)
TTITLE10=響鬼見参！！(inst)
TTITLE11=風雅勇伝(inst)
TTITLE12=雷武轟々(inst)
TTITLE13=少年よ(inst)
TTITLE14=Flashback(movieサイズ)
TTITLE15=CCCDデータ
EXTD=YEAR: 2006
EXTT0=
EXTT1=
EXTT2=
EXTT3=
EXTT4=
EXTT5=
EXTT6=
EXTT7=
EXTT8=
EXTT9=
EXTT10=
EXTT11=
EXTT12=
EXTT13=
EXTT14=
EXTT15=
PLAYORDER=
